<svg xmlns="http://www.w3.org/2000/svg" version="1.1" xmlns:xlink="http://www.w3.org/1999/xlink" width="512" height="512"><svg xmlns="http://www.w3.org/2000/svg" width="512" height="512" viewBox="615 320 5600 5800" shape-rendering="geometricPrecision">
	<g id="SvgjsG1411">
		<g id="SvgjsG1410">
			<path id="SvgjsPath1409" fill="rgb(253,253,253)" d="M 3148 5629 c -111 -8 -245 -26 -259 -35 -5 -3 -9 -23 -9 -45 0 -35 34 -94 271 -472 754 -1200 674 -1065 656 -1101 -8 -17 -83 -141 -166 -276 -151 -245 -151 -245 -151 -306 0 -51 5 -67 28 -100 16 -21 81 -124 145 -227 117 -188 117 -188 -40 -447 -87 -143 -160 -260 -163 -259 -3 0 -90 138 -195 306 -104 168 -212 341 -238 383 -48 77 -48 77 94 296 78 120 203 316 276 434 189 303 211 211 -202 870 -180 289 -375 598 -432 688 -105 162 -105 162 -144 162 -83 0 -363 -133 -570 -271 -493 -329 -847 -834 -988 -1410 -52 -212 -65 -337 -65 -604 0 -177 5 -271 18 -360 76 -521 311 -991 676 -1355 187 -187 385 -328 625 -446 323 -158 619 -229 1005 -241 632 -19 1173 151 1635 517 119 94 299 280 396 410 249 332 395 673 461 1080 29 181 31 581 5 765 -103 702 -480 1291 -1072 1670 -460 295 -985 418 -1597 374 z  m 629 -429 c 147 -25 393 -109 545 -186 324 -164 624 -436 809 -734 375 -605 410 -1329 92 -1952 -503 -989 -1691 -1396 -2679 -919 -216 104 -400 237 -571 412 -114 117 -176 194 -265 329 -415 632 -424 1441 -24 2100 152 250 375 481 620 642 90 59 90 59 159 -49 166 -257 439 -687 443 -698 3 -7 -123 -223 -280 -481 -281 -461 -286 -470 -286 -523 0 -59 -28 -9 310 -556 293 -475 705 -1133 718 -1148 12 -13 27 -17 56 -15 40 3 43 6 109 103 103 151 802 1235 822 1275 22 43 31 161 16 215 -6 23 -63 126 -127 230 -64 105 -118 195 -121 201 -2 6 41 82 97 168 145 224 155 248 155 371 0 86 -3 106 -24 144 -23 44 -293 479 -549 884 -107 168 -127 206 -109 202 12 -2 50 -9 84 -15 z "></path>
		</g>
		<g id="SvgjsG1408" fill="rgb(71,111,174)">
			<path id="SvgjsPath1407" d="M 2840 5145 c 0 -3 147 -240 326 -528 223 -356 328 -533 331 -557 4 -31 -11 -60 -130 -250 -73 -118 -197 -312 -274 -431 -77 -119 -143 -224 -146 -233 -4 -9 -1 -31 7 -49 25 -58 496 -802 508 -802 13 0 358 563 358 584 0 14 -217 370 -272 445 -43 60 -38 85 43 216 39 63 118 193 176 288 105 173 105 173 34 290 -39 64 -183 295 -320 512 -249 395 -249 395 -302 401 -63 8 -81 14 -200 74 -78 39 -139 57 -139 40 z "></path>
			<path id="SvgjsPath1406" d="M 1318 5038 c -298 -343 -493 -726 -603 -1183 -51 -210 -66 -329 -72 -556 -8 -307 24 -556 112 -857 213 -734 769 -1371 1477 -1694 699 -319 1490 -345 2180 -72 664 263 1171 710 1467 1294 168 330 251 582 297 905 24 165 24 522 1 695 -63 454 -235 886 -506 1268 -36 50 -69 92 -73 92 -4 0 -8 -17 -8 -39 0 -31 17 -66 81 -172 112 -184 190 -338 222 -438 15 -47 25 -86 24 -88 -2 -2 -30 20 -63 48 -62 55 -107 79 -147 79 -37 0 -71 32 -139 133 -91 132 -163 207 -199 207 -16 0 -29 -3 -29 -6 0 -3 20 -33 43 -67 210 -298 349 -654 403 -1032 27 -181 24 -526 -5 -705 -81 -506 -307 -954 -661 -1311 -130 -131 -227 -211 -380 -312 -605 -400 -1428 -497 -2140 -252 -146 50 -384 169 -517 258 -570 381 -940 969 -1039 1652 -24 164 -24 495 0 660 59 412 215 787 462 1115 40 53 93 118 118 146 25 28 43 54 39 58 -19 18 -79 3 -151 -39 -90 -52 -139 -66 -148 -41 -3 8 1 58 10 110 17 102 21 206 7 206 -5 0 -33 -28 -63 -62 z "></path>
			<path id="SvgjsPath1405" d="M 2644 4538 c 6 -76 5 -87 -14 -111 -12 -15 -35 -29 -54 -32 -45 -9 -512 69 -595 99 -36 13 -81 30 -100 38 -33 13 -34 13 -73 -32 -66 -73 -174 -246 -243 -385 -101 -204 -166 -424 -194 -655 -14 -109 -14 -381 0 -490 66 -533 333 -1009 759 -1349 296 -236 646 -383 1030 -430 129 -17 424 -14 553 5 825 119 1495 719 1698 1523 68 268 79 590 28 874 -10 60 -13 63 -68 104 -94 69 -133 83 -234 83 -76 0 -96 -4 -143 -27 -55 -27 -55 -27 -92 10 -32 32 -44 37 -82 37 -25 0 -64 -9 -87 -19 -31 -15 -55 -18 -100 -14 -57 5 -61 4 -128 -41 -79 -53 -138 -116 -184 -197 -26 -46 -31 -66 -31 -120 0 -70 13 -98 65 -141 60 -50 161 -88 236 -88 20 0 38 -3 41 -6 11 -10 -50 -221 -80 -281 -61 -121 -117 -142 -191 -72 -23 22 -25 22 -35 5 -29 -48 -751 -1165 -814 -1258 -39 -58 -76 -110 -83 -113 -6 -4 -19 1 -29 11 -15 16 -375 590 -720 1149 -47 77 -137 222 -199 323 -87 141 -112 189 -109 210 2 15 133 239 291 498 158 259 287 481 287 492 0 22 -284 475 -302 481 -8 3 -9 -21 -4 -81 z "></path>
		</g>
		<g id="SvgjsG1404" fill="rgb(81,123,179)">
			<path id="SvgjsPath1403" d="M 4317 5704 c -187 -87 -237 -124 -237 -177 0 -7 57 -32 128 -55 406 -139 814 -423 1079 -752 33 -41 89 -104 124 -140 35 -36 92 -105 125 -155 77 -112 91 -125 151 -136 50 -10 84 -31 171 -104 90 -77 117 -54 82 68 -40 144 -90 248 -228 476 -42 68 -81 139 -87 157 -24 70 -280 334 -470 485 -211 168 -602 390 -683 388 -23 0 -83 -22 -155 -55 z "></path>
			<path id="SvgjsPath1402" d="M 1955 5566 c -189 -118 -350 -242 -501 -388 -87 -85 -100 -101 -97 -125 3 -16 -3 -69 -11 -118 -9 -50 -16 -111 -16 -138 0 -41 3 -49 25 -59 34 -15 90 2 188 58 43 25 82 42 88 38 6 -3 56 38 112 93 186 181 375 314 624 437 144 71 251 112 263 100 5 -5 58 -87 119 -183 61 -95 111 -171 111 -167 0 3 41 -15 91 -40 50 -25 109 -52 131 -60 40 -14 158 -20 158 -8 0 3 -75 125 -166 271 -97 156 -163 271 -160 280 5 12 -3 13 -52 6 -31 -4 -160 -7 -287 -5 -235 2 -365 18 -474 56 -24 9 -44 16 -45 15 0 0 -46 -28 -101 -63 z "></path>
			<path id="SvgjsPath1401" d="M 3610 5249 c 0 -6 87 -149 194 -317 304 -483 492 -784 517 -833 18 -34 23 -60 24 -114 0 -89 -20 -132 -154 -341 -56 -85 -106 -164 -111 -175 -9 -16 10 -53 116 -224 163 -265 172 -288 138 -394 -17 -50 -17 -51 7 -70 33 -26 94 -44 129 -36 69 15 126 116 177 313 38 149 38 151 -27 152 -74 1 -176 38 -235 88 -73 61 -82 115 -34 201 46 81 105 144 183 197 68 45 70 46 108 33 35 -11 44 -10 103 14 36 15 71 27 78 27 7 0 29 -16 48 -36 52 -55 65 -56 140 -18 116 59 208 44 338 -55 57 -43 81 -51 81 -27 0 30 -50 207 -85 301 -105 280 -259 519 -470 730 -300 300 -695 502 -1126 575 -135 23 -139 23 -139 9 z "></path>
			<path id="SvgjsPath1400" d="M 2290 4932 c -58 -38 -134 -92 -170 -122 -122 -100 -337 -320 -298 -305 8 3 39 -6 70 -19 79 -35 141 -49 398 -91 268 -44 330 -44 368 0 23 28 24 34 19 115 -5 86 -5 86 -134 285 -70 109 -133 200 -138 202 -6 2 -58 -27 -115 -65 z "></path>
		</g>
		<g id="SvgjsG1399" fill="rgb(56,115,152)">
			<path id="SvgjsPath1398" d="M 3080 5955 c -264 -32 -552 -110 -795 -216 -137 -59 -251 -121 -247 -134 8 -28 239 -75 377 -76 55 0 125 -4 155 -9 31 -5 113 -4 190 2 115 8 137 13 150 29 12 15 39 22 125 34 329 42 658 25 957 -51 53 -13 102 -24 108 -24 6 0 16 11 22 25 6 14 33 39 59 55 77 47 288 140 318 140 56 0 40 15 -56 53 -208 81 -470 145 -714 172 -162 18 -501 18 -649 0 z "></path>
		</g>
	</g>
</svg><style>@media (prefers-color-scheme: light) { :root { filter: none; } }
@media (prefers-color-scheme: dark) { :root { filter: none; } }
</style></svg>